<?xml version="1.0" encoding="utf-8"?>
<!-- Generator: Adobe Illustrator 19.2.1, SVG Export Plug-In . SVG Version: 6.00 Build 0)  -->
<svg version="1.1" id="Ebene_1" xmlns="http://www.w3.org/2000/svg" xmlns:xlink="http://www.w3.org/1999/xlink" x="0px" y="0px"
	 viewBox="0 0 50 50" style="enable-background:new 0 0 50 50;" xml:space="preserve">
<style type="text/css">
	.st0{fill:#D81F26;}
</style>
<path class="st0" d="M31.2,26.9l-2.9,2.9l0,0c-1,1-2,1.5-2.9,1.5l0,0c-0.5,0-1-0.1-1.5-0.4c-0.5-0.2-0.9-0.6-1.4-1.1l0,0l-2.9-2.9
	L7,39.3h36.8L31.2,26.9L31.2,26.9z M23.9,28.2c0.3,0.3,0.5,0.5,0.7,0.6c0.3,0.2,0.5,0.2,0.8,0.2l0,0c0.4,0,0.9-0.3,1.5-0.8l16.9-17
	H7L23.9,28.2L23.9,28.2z M32.6,25.5l12.3,12.1V13.1L32.6,25.5L32.6,25.5z M5.9,37.5l12.3-12.1L5.9,13.1V37.5L5.9,37.5z"/>
</svg>
